<?xml version="1.0" encoding="UTF-8"?>
<svg id="Layer_1" data-name="Layer 1" xmlns="http://www.w3.org/2000/svg" viewBox="0 0 909.26 105.65">
  <defs>
    <style>
      .cls-1 {
        fill: #3d87c7;
      }
    </style>
  </defs>
  <g>
    <path class="cls-1" d="M405.2,36.95h-34.43v-9.21h-23.03c0,2.54-.02,5.04.04,7.54,0,.24.51.57.84.67,5.2,1.57,10.4,3.11,15.61,4.66,10.05,2.98,20.1,5.97,30.15,8.93,6.01,1.77,9.5,5.79,10.73,11.85.14.67.14,1.37.14,2.05,0,8.26,0,16.51,0,24.77,0,7.5-4.84,13.51-12.17,15.06-1.17.25-2.39.28-3.59.28-20.18.02-40.35.02-60.53,0-7.62,0-13.58-4.48-15.31-11.49-.29-1.16-.44-2.38-.44-3.57-.04-6.5-.02-13-.02-19.5,0-.27.04-.54.07-.87h34.48v10.39h23.01v-4.97c0-1.2-.05-2.41.02-3.61.04-.79-.2-1.12-.98-1.35-10-2.9-19.99-5.84-29.98-8.78-5.38-1.58-10.75-3.15-16.12-4.74-6.4-1.9-10.53-7.53-10.5-14.19.03-7.64-.05-15.27.03-22.91.07-6.65,3.31-11.32,9.28-14.13,2-.94,4.17-1.16,6.35-1.16,20.28-.01,40.56.04,60.84-.03,8.84-.03,14.68,6.57,15.45,12.99.07.58.12,1.16.12,1.75,0,6.26,0,12.52,0,18.78,0,.24-.03.48-.05.8Z"/>
    <path class="cls-1" d="M506.95,2.73v24.76h-26.61v76h-34.55V27.54h-26.78V2.73h87.94Z"/>
    <path class="cls-1" d="M495.5,97.46h-2.92v6.03h-2.4v-6.03h-2.92v-1.94h8.23v1.94Z"/>
    <path class="cls-1" d="M506.88,103.48h-2.4v-4.61l-2.17,2.67h-.19l-2.17-2.67v4.61h-2.33v-7.96h2.18l2.45,2.99,2.46-2.99h2.18v7.96Z"/>
    <path class="cls-1" d="M0,2.65h1.13c24.96,0,49.93.02,74.89-.01,5.22,0,9.52,1.79,12.8,5.91,2.14,2.7,3.14,5.79,3.16,9.18.04,6.16.06,12.32,0,18.47-.08,8.76-5.48,13.34-13.41,14.53-.57.09-1.15.15-1.79.23v3.93c1.24.2,2.46.33,3.66.61,2.58.6,4.93,1.71,6.97,3.43,3.41,2.87,4.5,6.75,4.56,10.97.09,6.23.07,12.45,0,18.68-.07,7.2-5.19,13.32-12.28,14.69-1.11.22-2.26.26-3.39.26-25.14.01-50.27.01-75.41.01h-.91V2.65ZM57.38,27.74h-22.9v15.14h22.9v-15.14ZM57.45,63.77h-22.97v14.66c.15.05.24.11.34.11,7.32,0,14.65.02,21.97-.01.22,0,.63-.42.63-.64.04-4.67.03-9.34.03-14.12Z"/>
    <path class="cls-1" d="M139.99,3.02c.63.42,1.39.66,1.96,1.14.55.45,1.05,1.05,1.35,1.69.76,1.6,1.27,3.4,3.6,3.23.08,0,.22.01.25.06,1.03,1.66,2.62,1,4.09,1.11,1.75.13,3.33.74,4.29,2.53.86,1.59,2.45,2.46,4.26,2.3,1.63-.15,2.96.39,4.36,1.01,2.77,1.22,5.06,2.96,6.55,5.67.26.47.82,1.05,1.29,1.09,2.05.2,2.69,1.94,3.85,3.15.57.6,1.2,1.14,1.85,1.66,2.4,0,4.8,0,7.2,0h1.32V9.38c-.45-.15-.9-.32-1.33-.51-1.05-.47-1.74-1.14-2.1-2.49-.28-1.06-1.69-1.92-2.75-2.66-.54-.37-1.12-.7-1.7-1.01h-38.76c.14.1.28.2.42.3Z"/>
    <path class="cls-1" d="M280.4,2.69h-57.68c-1.4,6.16-2.81,12.32-4.21,18.48.29.44.39,1.01.15,1.77-.06.18.31.58.57.76,1.43.97,2.82,2.05,4.37,2.81,1.24.61,2.65,1.02,4.02,1.16.97.1,1.62.33,2.04,1.17.2.4.37.81.55,1.22.77,1.77,1.53,3.52,3.47,4.4.35.16.67.63.77,1.02.37,1.44,1.31,2.03,2.73,2.1,2.26.11,2.74.63,2.91,2.92.07.96.31,1.84,1.62,1.52.17-.04.37-.06.52,0,1.36.49,3.09,3.13,2.99,4.61-.08,1.16.62,1.66,1.42,1.9.69-3.03,1.35-6.07,1.92-9.13.64-3.43.68-6.97.97-10.46.03-.37,0-.75,0-1.3,1.21,0,2.36-.03,3.51.04.15,0,.36.57.38.89.15,2.33.05,4.7.43,6.99.82,4.94,1.8,9.86,2.85,14.76,1.03,4.8,2.21,9.57,3.33,14.35.06.26.09.54.14.89h-.07c.59,1.34.51,3.27,1.83,4.25,1.05.78,1.77,2,2.67,2.98.42.45.88.93,1.42,1.19,1.13.54,1.67,1.2.97,2.12.79,1.26.98,1.38,1.78,2.42.87,1.12,2.22,2.22,3.22,3.22,1.26,1.26,1.75,3.09,2.96,4.38.47.49,1.8,1.52,1.89,2.18.37,2.56,1.65,4.68,2.98,6.79.14.22.25.47.35.72.04.11,0,.26,0,.38-.1.07-.2.13-.3.2-1.31-1.61-2.65-3.19-3.93-4.83-1.18-1.51-2.35-3.03-3.42-4.61-1.02-1.51-2.06-3.04-2.83-4.68-.95-2.04-2.63-3-4.54-3.86-1.65-.75-3.19-1.69-3.92-3.56-.23-.6-.88-1.08-1.42-1.51-.96-.77-2.11-1.34-2.94-2.22-1.19-1.26-2.17-2.71-3.21-4.1-.21-.27-.38-.62-.43-.95-.02-.17-.05-.34-.09-.5h-10.43c.6-2.6,1.2-5.13,1.77-7.66.13-.59.27-1.18.4-1.78-.89-.52-1.73-1-2.53-1.54-.59-.39-1.08-.92-1.62-1.37-.62-.51-1.27-1-1.89-1.52-.29-.25-.55-.54-.79-.84-.41-.52-.71-1.16-1.2-1.57-.52-.42-.83-.69-.48-1.41.1-.21-.31-.91-.62-1.03-1.49-.58-3.07-.95-4.54-1.59-.8-.35-1.39-1.17-2.16-1.62-.87-.51-1.24-1.03-1.18-2.13.04-.81-.49-1.66-1.67-1.67-1.99-.02-2.9-.79-3.4-2.71-.36-1.39-1.28-2.35-2.51-2.98-1.41-.73-2.85-1.41-4.27-2.11-1.77,7.77-3.54,15.55-5.31,23.32.77.54,1.64.96,2.46,1.43.84.47,1.75.82,2.58,1.3.92.53,1.63,1.49,2.92,1.2.18-.04.58.43.7.73.49,1.26,1.15,2.53,1.3,3.84.23,2.06,1.84,1.99,3.11,2.25,1,.2,1.55.67,2.07,1.43,1.28,1.86,2.62,3.69,3.93,5.53.21.29.51.6.53.92.14,2.04,1.8,2.94,2.98,4.23.51.56.94,1.46.93,2.19-.05,3.06.53,3.75,3.69,3.94.36.02.76.26,1.03.51,1.28,1.22,2.62,2.39,3.84,3.67,7.19.01,14.38.01,21.57.01h1.05c.11.46.2.82.28,1.18.92,4.23,1.86,8.45,2.74,12.69.18.87.49,1.14,1.4,1.14,10.74-.03,21.48-.02,32.23-.02h1.17c-7.63-33.73-15.23-67.29-22.83-100.86Z"/>
    <path class="cls-1" d="M205.87,90.39c1.99.13,3.14,1.26,3.78,3.05.07.2.17.48.33.56,1.67.83,1.46,2.34,1.45,3.8-.01,1.34.34,2.53,1.41,3.41.94.77,1.88,1.54,2.82,2.3h18.57c.08-.34.17-.67.25-1,.25-1.13.5-2.25.74-3.38-.66-.38-1.31-.79-1.93-1.23-.45-.31-.61-1.06-.87-1.62-.59-1.29-.7-2.8-2.13-3.67-1.66-1.01-3.56-1.92-4.72-3.38-1.73-2.17-4.35-3.77-4.89-6.81-.04-.25-.2-.5-.36-.71-1.24-1.68-2.52-3.34-3.71-5.05-.61-.88-1.39-1.27-2.4-1.13-1.4.2-2.33-.38-3.24-1.41-1.03-1.15-2.22-2.19-3.47-3.1-.11-.08-.2-.16-.3-.24-1.44,6.31-2.88,12.62-4.31,18.93.92.41,1.92.61,2.98.69Z"/>
    <g>
      <path class="cls-1" d="M110.09,19.68c2.1,1.12,4.51,1.66,6.62,2.77,1.87.98,3.69,2.19,5.23,3.62,2.01,1.86,3.74,4.04,5.57,6.09.51.58.93.71,1.72.37.48-.2,1.29.18,1.85.48.38.21.59.74,1,1.28,1.07-1.22,1.98-.78,3-.22,1.8.99,3.32,2.12,4.23,4.08.18.39.49.73.84,1.04,0-3.41,0-6.82,0-10.23q0-1.33,1.36-1.33c7.42,0,14.83,0,22.24,0-.35-.5-.65-1.07-.97-1.61-.45-.77-.81-1.6-1.26-2.37-.62-1.08-1.3-2.01-2.56-2.6-.92-.43-1.5-1.57-2.24-2.39-.33-.36-.66-.71-.99-1.07-2.77-2.98-6.69-3.71-10.22-5.18-1.18-.49-2.18-.95-2.98-2.05-.97-1.33-2.27-2.44-3.46-3.6-.23-.22-.67-.41-.95-.35-1.21.29-2.04-.3-2.91-.98-.95-.73-1.99-1.35-3-2-.35-.22-.68-.46-.99-.72h-25.56v14.38c1.45.9,2.91,1.78,4.42,2.58Z"/>
      <path class="cls-1" d="M143.81,42.23c.77.85,1.58,1.38,2.68,1.81,1.18.46,2.07,1.64,3.15,2.42.88.63,1.34,1.79,2.7,1.86.64.03,1.26.57,1.89.89.43.22.83.64,1.27.7,2.16.26,3.77,1.55,5.34,2.85.57.47.88,1.31,1.23,2.02.64,1.31,1.37,2.47,2.87,2.97.61.21,1.11.73,1.69,1.06.41.24.92.61,1.31.53,1.38-.27,1.53.61,1.52,1.54,0,1.53.97,2.96,2.45,3.42,1.55.48,3.11.95,4.66,1.45h5.96v-25h-40.48c.61.47,1.26.92,1.77,1.49Z"/>
      <path class="cls-1" d="M183.11,86.46c-1.65-.87-3.31-2.01-3.47-4.37-.1-1.46-1.68-2-3.05-1.43-.36.15-.98-.09-1.38-.32-.4-.23-.67-.67-1.12-1.15-.58,1.47-1.34,1.36-2.22.51-.15-.15-.38-.25-.59-.31-.64-.18-1.18-.42-1.55-.82h-29.52v-12.81h18.99c-.11-.34-.2-.7-.24-1.09-.15-1.38-.93-2.37-1.92-3.26-1.9-1.71-3.82-3.38-6.29-4.25-.88-.31-1.42-.74-.78-1.9.56-1.02-.2-1.84-1.08-2.38-.49-.3-1.05-.54-1.61-.64-1.13-.2-1.71-.97-2.35-1.81-.54-.71-1.32-1.26-2.06-1.78-.84-.58-1.82-.96-2.61-1.6-.38-.31-.66-.98-.67-1.49,0-1.83-.62-2.87-2.38-3.24-1.28-.27-2.3-.69-3.09-1.85-.4-.59-1.31-1-2.06-1.16-1.85-.4-2.93-1.71-3.77-3.14-.96-1.64-2.34-2.65-3.9-3.55-1.11-.64-2.26-1.21-3.29-1.96-1.16-.84-2.42-1.57-2.71-3.29-.19-1.16-1.2-1.87-2.49-2.15-.87-.19-1.73-.68-2.47-1.21-1.99-1.44-4.25-2.55-5.75-4.61-.1-.13-.29-.23-.46-.27-.55-.11-1.07-.28-1.56-.49v84.86h49.22c-.62-.59-1.2-1.24-1.93-1.48-2.03-.66-2.63-2.3-3-3.94-.49-2.19-2.23-3.13-3.65-4.43-.18-.17-.52-.32-.74-.27-1.73.38-2.16-.67-2.42-2.04-.11-.6-.36-1.25-.74-1.7-.35-.41-.94-.64-1.47-.87-.21-.09-.58.18-.78.08-2.49-1.27-5.11-2.39-6.95-4.62-.56-.68-.82-1.59-1.35-2.3-.92-1.26-1.74-1.31-2.96-.31-.74.61-2.13.06-2.83-1.13-.34-.58-.7-1.14-.97-1.75-1.45-3.28-4.51-4.67-7.34-6.35-.76-.45-1.45-1.03-2.17-1.55.07-.15.15-.31.22-.46.46.11.98.11,1.37.34,2.5,1.48,4.97,3.01,7.44,4.52.26.16.56.51.78.46,1.92-.37,2.86.98,3.94,2.14.39.41.97.63,1.4,1.02,1.24,1.14,2.38,2.41,3.68,3.46,1.17.94,2.44,1.81,3.79,2.44,1.53.71,3.25,1,4.8,1.68.84.36,1.51,1.13,2.25,1.73.54.43,1.06.89,1.62,1.31,1.12.83,2.26,1.64,3.39,2.45.5.36.97,1,1.49,1.05,3.22.29,5.34,2.47,7.66,4.32,1.36,1.08,2.77,1.35,4.47,1,.51-.1,1.59.61,1.73,1.13.22.8.63,1.02,1.25,1.13,1.14.2,1.72.96,2.22,1.93.2.4.56.75.94,1.04h16.2v-13.67c-.69-1.4-1.59-2.54-3.13-3.36Z"/>
    </g>
  </g>
  <g>
    <path class="cls-1" d="M656.58,105.49c-5.89.68-12.17-.82-17.49-3.21-6.67-3-12.84-6.9-18.44-11.6-2.94-2.48-5.68-5-8.24-7.86-1.82-2.04-3.39-4.13-5.01-6.34-2.12-2.89-3.65-5.99-4.9-9.34-.92-2.48-1.61-4.9-1.73-7.57-.17-3.7.93-7.23,3.31-10.07,1.72-2.06,3.88-3.75,6.39-4.83l44.41-19.09c.49-.21.85-.47,1.21-.84l14.29-14.45c-.7-1.98-.92-4.03-.33-5.97.75-2.46,2.71-4.06,5.28-4.27,4.07-.37,8.8,1.92,12.24,4.2,4.14,2.75,7.76,6.09,10.75,10.06,2.24,2.97,4.5,7.16,3.93,10.82-.66,4.62-6.07,5.63-10.17,4.27l-16.13,19.28c-.35.42-.49,1.06-.57,1.57l-1.36,9.08-4.42,30.62c-.31,2.14-.81,4.04-1.46,6.05-1.68,5.17-6.05,8.86-11.56,9.5ZM656.56,57.86c4.44.47,8.47,1.58,12.07,4.08l2.64-14.49c.11-.61.32-1.09.72-1.57l18.02-21.35c.38-.45.85-.63,1.39-.38,2.54,1.17,6.8,2.41,6.97-.58.27-4.75-7.13-11.58-10.99-14.53-2.7-2.07-10.2-6.87-12.45-4.7-1.4,1.35-.2,4.58.97,6.44,1.44,2.3,3.11,4.38,4.95,6.37,1.22,1.32,2.52,2.39,3.99,3.41.25.17.54.5.56.73.02.27-.14.71-.27.94-.34.57-.8.75-1.38.46-2.05-1-4.01-2.02-5.86-3.36-1.92-1.39-3.55-2.99-5.21-4.73l-13.05,13.8c-.66.7-1.32,1.15-2.23,1.54l-37.92,16.22c.84.99,1.82,1.8,2.89,2.58,5.95,4.3,13.12,6.56,20.4,7.45l13.78,1.69ZM658.8,99.26l4.54-28.82c-1.43-1.16-2.34-2.61-3.32-4.27l-5.35,34.52c1.47-.19,2.85-.63,4.13-1.43Z"/>
    <path class="cls-1" d="M694.81,21.32c-1.05.96-4.29-.51-5.8-1.26-3.79-1.9-7.05-4.59-9.39-8.14-.82-1.24-1.41-2.46-1.68-3.92-.04-.21.12-.53.36-.59,4.71,5.58,10.29,10.16,16.51,13.91Z"/>
  </g>
  <g>
    <path class="cls-1" d="M520.51,2.73h34.48v75.77h41.88v25.01h-76.37V2.73Z"/>
    <path class="cls-1" d="M711.83,2.73h76.66c8.44,0,15.24,6.81,15.24,15.24v17.76c0,15.39-15.24,15.24-15.24,15.24v4s15.24,0,15.24,15.54v17.76c0,8.44-6.81,15.24-15.24,15.24h-76.66V2.73ZM769.25,27.74h-22.94v15.24h22.94v-15.24ZM769.25,78.51v-14.8h-22.94v14.8h22.94Z"/>
    <path class="cls-1" d="M817.35,88.27v-20.28h34.48v10.51h22.94v-9.62l-47.36-13.91c-6.07-1.92-10.06-7.55-10.06-14.06v-22.94c0-8.44,6.81-15.24,15.24-15.24h61.42c8.44,0,15.24,6.81,15.24,15.24v19.09h-34.48v-9.32h-22.94v7.99l47.36,14.06c6.07,1.92,10.06,7.55,10.06,13.91v24.57c0,8.44-6.81,15.24-15.24,15.24h-61.42c-8.44,0-15.24-6.81-15.24-15.24Z"/>
  </g>
</svg>