<?xml version="1.0" encoding="UTF-8"?>
<svg id="Layer_1" data-name="Layer 1" xmlns="http://www.w3.org/2000/svg" viewBox="0 0 590.59 613.38">
  <defs>
    <style>
      .cls-1 {
        fill: #3d87c7;
      }

      .cls-2, .cls-3 {
        fill: #fff;
      }

      .cls-3 {
        stroke: #fff;
        stroke-miterlimit: 10;
        stroke-width: 30px;
      }
    </style>
  </defs>
  <polygon class="cls-2" points="500.61 255.25 486.5 255.25 486.5 259.05 491.33 259.05 491.33 269.32 495.79 269.32 495.79 259.05 500.61 259.05 500.61 255.25"/>
  <polygon class="cls-2" points="518.8 269.32 518.8 255.24 514.83 255.24 510.89 260.18 506.96 255.24 502.99 255.24 502.99 269.32 507.35 269.32 507.35 261.92 510.57 266.01 511.12 266.01 514.33 261.92 514.33 269.32 518.8 269.32"/>
  <path class="cls-3" d="M552.84,93.71c-16.46-21.82-36.42-40.24-59.21-55.37-18.9-12.55-44.95-25.14-67.39-23.13-14.13,1.14-24.93,9.99-29.05,23.52-3.26,10.69-2.04,21.94,1.82,32.86l-78.67,79.58c-1.99,2.01-3.98,3.47-6.67,4.62l-244.57,105.13c-13.83,5.94-25.68,15.26-35.18,26.59-13.12,15.67-19.18,35.13-18.23,55.48.68,14.7,4.44,28.01,9.52,41.66,6.87,18.45,15.28,35.54,26.97,51.43,8.93,12.14,17.56,23.64,27.61,34.89,14.05,15.75,29.14,29.66,45.35,43.3,30.82,25.92,64.78,47.37,101.52,63.9,29.28,13.17,63.85,21.46,96.29,17.69,30.35-3.52,54.42-23.8,63.67-52.29,3.6-11.08,6.35-21.58,8.05-33.34l24.34-168.61,7.51-49.98c.43-2.84,1.2-6.37,3.11-8.65l88.85-106.16c22.61,7.49,52.39,1.95,56.03-23.51,3.12-20.15-9.35-43.27-21.67-59.6Z"/>
  <g>
    <path class="cls-1" d="M322.95,595.87c-32.44,3.76-67.01-4.52-96.29-17.69-36.74-16.53-70.7-37.98-101.52-63.9-16.21-13.63-31.3-27.55-45.35-43.3-10.04-11.26-18.68-22.75-27.61-34.89-11.69-15.89-20.1-32.98-26.97-51.43-5.08-13.65-8.84-26.96-9.52-41.66-.95-20.35,5.11-39.81,18.23-55.48,9.49-11.34,21.35-20.65,35.18-26.59l244.57-105.13c2.69-1.16,4.68-2.61,6.67-4.62l78.67-79.58c-3.86-10.92-5.08-22.17-1.82-32.86,4.12-13.53,14.92-22.38,29.05-23.52,22.44-2.02,48.48,10.57,67.39,23.13,22.78,15.13,42.75,33.56,59.21,55.37,12.32,16.33,24.79,39.45,21.67,59.6-3.63,25.46-33.42,31-56.03,23.51l-88.85,106.16c-1.91,2.29-2.69,5.81-3.11,8.65l-7.51,49.98-24.34,168.61c-1.7,11.76-4.45,22.26-8.05,33.34-9.25,28.49-33.32,48.77-63.67,52.29ZM322.79,333.63c24.47,2.61,46.64,8.7,66.47,22.48l14.55-79.8c.61-3.36,1.74-6.01,3.99-8.67l99.25-117.54c2.11-2.5,4.7-3.45,7.64-2.1,14.01,6.44,37.46,13.27,38.41-3.2,1.51-26.17-39.26-63.76-60.5-80.03-14.88-11.4-56.15-37.82-68.58-25.89-7.73,7.42-1.09,25.21,5.31,35.44,7.93,12.67,17.11,24.1,27.25,35.07,6.71,7.27,13.88,13.17,21.96,18.77,1.38.96,3,2.73,3.08,4.01.1,1.48-.76,3.93-1.48,5.16-1.86,3.12-4.41,4.13-7.58,2.56-11.26-5.5-22.07-11.12-32.26-18.52-10.57-7.68-19.54-16.45-28.67-26.04l-71.87,75.97c-3.65,3.86-7.29,6.34-12.26,8.46l-208.82,89.34c4.63,5.45,10.03,9.93,15.92,14.19,32.78,23.7,72.23,36.13,112.32,41.04l75.89,9.3ZM335.15,561.58l24.98-158.69c-7.87-6.37-12.9-14.39-18.26-23.54l-29.46,190.1c8.09-1.06,15.7-3.46,22.74-7.87Z"/>
    <path class="cls-1" d="M533.47,132.41c-5.79,5.3-23.65-2.79-31.93-6.93-20.9-10.44-38.83-25.3-51.68-44.81-4.49-6.82-7.75-13.53-9.24-21.61-.22-1.18.65-2.93,1.96-3.24,25.94,30.74,56.64,55.97,90.89,76.58Z"/>
  </g>
</svg>